<?xml version="1.0" encoding="UTF-8"?> <svg xmlns="http://www.w3.org/2000/svg" xmlns:xlink="http://www.w3.org/1999/xlink" width="171px" height="30px" viewBox="0 0 171 30" version="1.1"><!-- Generator: Sketch 64 (93537) - https://sketch.com --><title>Group 21</title><desc>Created with Sketch.</desc><defs><polygon id="path-1" points="0.0655705036 0.0813954545 16.0357266 0.0813954545 16.0357266 19.9090773 0.0655705036 19.9090773"></polygon><polygon id="path-3" points="0 29.8636364 170.90623 29.8636364 170.90623 0.0818181818 0 0.0818181818"></polygon></defs><g id="Symbols" stroke="none" stroke-width="1" fill="none" fill-rule="evenodd"><g id="LAT---NAV" transform="translate(-125.000000, -21.000000)"><g id="Group-21" transform="translate(125.000000, 21.000000)"><g id="Group-20"><polygon id="Fill-1" fill="#1D1D1B" points="0 3.85753636 0 6.3039 4.94246043 6.3039 4.94246043 29.4287182 12.6802446 29.4287182 12.6802446 26.9850818 7.77455396 26.9850818 7.77455396 3.85753636"></polygon><g id="Group-19" transform="translate(0.000000, 0.054545)"><path d="M33.5546698,23.7739091 L33.5546698,20.3513182 C30.9973245,20.5790455 29.2450871,20.7931364 28.2950871,20.9908636 C27.3423532,21.1899545 26.5222094,21.5635909 25.8238568,22.1063182 C25.1294683,22.6502727 24.7795403,23.388 24.7795403,24.318 C24.7795403,25.1620909 25.076159,25.8424091 25.6693964,26.3660455 C26.2652309,26.8855909 27.0183964,27.1446818 27.9410583,27.1446818 C28.9442309,27.1446818 29.9435763,26.8446818 30.9371806,26.2460455 C31.9295547,25.6516364 32.8042381,24.8293636 33.5546698,23.7739091 L33.5546698,23.7739091 Z M36.8610799,29.3740909 L34.0426554,29.3740909 C33.8130151,28.6104545 33.6995619,27.5946818 33.6995619,26.3305909 C32.0908496,28.6828636 29.8955978,29.8636364 27.1222813,29.8636364 C25.7172381,29.8636364 24.4801878,29.3645455 23.4073029,28.3677273 C22.3356482,27.3710455 21.8011878,26.0905909 21.8011878,24.5170909 C21.8011878,23.5843636 21.9870871,22.7634545 22.3616194,22.0517727 C22.7375187,21.3413182 23.2870151,20.7372273 24.0168065,20.2463182 C24.7412669,19.7596364 25.6270223,19.3722273 26.6658712,19.0899545 C27.7073173,18.8023636 28.9443676,18.6100909 30.3740151,18.501 L33.5546698,18.2446364 L33.5546698,17.3405455 C33.5546698,14.1020455 32.0389072,12.4821818 29.0125763,12.4821818 C28.296454,12.4821818 27.3929288,12.639 26.2966698,12.9430909 C25.2005475,13.2552273 24.2560151,13.6179545 23.4701806,14.0406818 L22.7279504,12.0103636 C25.3057993,10.6971818 27.7032165,10.0358182 29.9215691,10.0358182 C34.2299216,10.0358182 36.3881302,12.3144545 36.3881302,16.8714545 L36.3881302,24.9889091 C36.3881302,26.6333182 36.5439576,28.095 36.8610799,29.3740909 Z" id="Fill-2" fill="#1D1D1B"></path><path d="M58.8946281,28.5246 C56.9947647,29.3918727 55.1221029,29.8255091 53.2810165,29.8255091 C49.9021604,29.8255091 48.2128007,28.0446 48.2128007,24.4816909 L48.2128007,12.9361909 L44.5783331,12.9361909 L44.5783331,10.4872364 L48.2128007,10.4872364 L48.2128007,5.32600909 L50.9738151,5.32600909 L50.9738151,10.4872364 L57.4075705,10.4872364 L57.4075705,12.9361909 L50.9738151,12.9361909 L50.9738151,23.7385091 C50.9738151,24.8865545 51.2280597,25.7770091 51.7379158,26.4111 C52.2462683,27.0423273 52.9338223,27.3588273 53.8086424,27.3588273 C55.3572108,27.3588273 56.8922468,27.0164182 58.4011748,26.3306455 L58.8946281,28.5246 Z" id="Fill-4" fill="#1D1D1B"></path><path d="M78.5130029,17.7209864 C78.5130029,16.2468955 78.0509885,15.0047591 77.1310604,13.9943045 C76.2112691,12.9908045 75.1833554,12.4835318 74.044859,12.4835318 C72.5781683,12.4835318 71.3643554,12.9662591 70.4021899,13.9343045 C69.4412547,14.9011227 68.9040604,16.1624864 68.7960748,17.7209864 L78.5130029,17.7209864 Z M81.6020748,20.0226682 L68.6156432,20.0226682 C68.6156432,22.1635773 69.2362187,23.9252591 70.4760029,25.3134409 C71.7170173,26.7055773 73.2396144,27.3996682 75.0439309,27.3996682 C76.7619957,27.3996682 78.5389741,27.0901227 80.3650245,26.4737591 L80.8584777,28.7386227 C79.1853842,29.4872591 77.2363122,29.8636227 75.0083914,29.8636227 C72.1995353,29.8636227 69.9332043,28.9623955 68.2137727,27.1610318 C66.494341,25.3598045 65.631823,22.9367591 65.631823,19.8781227 C65.631823,16.8809864 66.406859,14.4920318 67.9513266,12.7098955 C69.4959309,10.9276227 71.4887439,10.0359409 73.9367367,10.0359409 C76.1154489,10.0359409 77.9375353,10.8648955 79.4042259,12.5135318 C80.8694129,14.1729409 81.6020748,16.3805318 81.6020748,19.1363045 L81.6020748,20.0226682 Z" id="Fill-6" fill="#1D1D1B"></path><path d="M103.65614,10.9972227 L102.513406,13.7161773 C101.265558,13.1720864 100.185701,12.9007227 99.2767086,12.9007227 C98.4374281,12.9007227 97.6256223,13.1352682 96.8246151,13.6179955 C96.0263417,14.0952682 95.2910827,14.7755864 94.6185647,15.6633136 C93.9446799,16.5524045 93.6097878,17.0514955 93.6097878,17.1537682 L93.6097878,29.3714045 L90.7927302,29.3714045 L90.7927302,10.4885864 L93.6097878,10.4885864 L93.6097878,14.3175409 C95.1229532,11.4635864 97.0870612,10.0358591 99.4954137,10.0358591 C100.925198,10.0358591 102.311104,10.35495 103.65614,10.9972227" id="Fill-8" fill="#1D1D1B"></path><polygon id="Fill-10" fill="#1D1D1B" points="120.968599 29.3741455 118.136505 29.3741455 118.136505 12.9361909 112.556929 12.9361909 112.556929 10.4886 120.968599 10.4886"></polygon><path d="M148.194806,28.5246 C146.297676,29.3918727 144.426381,29.8255091 142.583928,29.8255091 C139.207806,29.8255091 137.518309,28.0446 137.518309,24.4816909 L137.518309,12.9361909 L133.881108,12.9361909 L133.881108,10.4872364 L137.518309,10.4872364 L137.518309,5.32600909 L140.27659,5.32600909 L140.27659,10.4872364 L146.708978,10.4872364 L146.708978,12.9361909 L140.27659,12.9361909 L140.27659,23.7385091 C140.27659,24.8865545 140.532201,25.7770091 141.042058,26.4111 C141.551914,27.0423273 142.239468,27.3588273 143.114288,27.3588273 C144.661489,27.3588273 146.192424,27.0164182 147.708187,26.3306455 L148.194806,28.5246 Z" id="Fill-12" fill="#1D1D1B"></path><g id="Group-16" transform="translate(154.870504, 9.954545)"><mask id="mask-2" fill="white"><use xlink:href="#path-1"></use></mask><g id="Clip-15"></g><path d="M12.9467504,7.76644091 C12.9467504,6.29235 12.484736,5.05021364 11.5648079,4.03975909 C10.6462468,3.03625909 9.61710288,2.52898636 8.47983669,2.52898636 C7.01054892,2.52898636 5.79946978,3.01171364 4.83593741,3.97975909 C3.87500216,4.94657727 3.33917482,6.20794091 3.22708849,7.76644091 L12.9467504,7.76644091 Z M16.0358223,10.0681227 L3.04802374,10.0681227 C3.04802374,12.2090318 3.66996619,13.9707136 4.90961367,15.3588955 C6.15213165,16.7510318 7.67609568,17.4451227 9.47904532,17.4451227 C11.1957432,17.4451227 12.9699878,17.1355773 14.8001388,16.5192136 L15.2908583,18.7840773 C13.6179014,19.5327136 11.6700597,19.9090773 9.44077194,19.9090773 C6.63191583,19.9090773 4.36572158,19.00785 2.64615324,17.2064864 C0.926721583,15.4052591 0.0655705036,12.9822136 0.0655705036,9.92357727 C0.0655705036,6.92644091 0.839239568,4.53748636 2.38370719,2.75535 C3.92831151,0.973077273 5.92112446,0.0813954545 8.36911727,0.0813954545 C10.5479662,0.0813954545 12.3726496,0.91035 13.8352396,2.55898636 C15.3031604,4.21839545 16.0358223,6.42598636 16.0358223,9.18175909 L16.0358223,10.0681227 Z" id="Fill-14" fill="#1D1D1B" mask="url(#mask-2)"></path></g><mask id="mask-4" fill="white"><use xlink:href="#path-3"></use></mask><g id="Clip-18"></g><polygon id="Fill-17" fill="#1D1D1B" mask="url(#mask-4)" points="117.485885 8.27413636 120.770424 8.27413636 120.770424 0.0818181818 117.485885 0.0818181818"></polygon></g></g></g></g></g></svg> 